<svg xmlns="http://www.w3.org/2000/svg" viewBox="0 0 147 269.78"><defs><style>.cls-1,.cls-4{fill:#00b2bf;}.cls-1{opacity:0.91;}.cls-1,.cls-2,.cls-4{isolation:isolate;}.cls-2{fill:#29abe2;stroke:#83dee2;stroke-width:3px;opacity:0.3;}.cls-10,.cls-2{stroke-miterlimit:10;}.cls-3{fill:#3e9dcc;}.cls-4{opacity:0.54;}.cls-5{fill:#efe2ab;}.cls-6{fill:#1ac0d6;opacity:0.45;}.cls-7{fill:#edd045;}.cls-8{fill:#f7aa39;}.cls-9{fill:#fff;}.cls-10{fill:none;stroke:#000;stroke-width:0.25px;}</style></defs><title>Asset 8</title><g id="Layer_2" data-name="Layer 2"><g id="Layer_6" data-name="Layer 6"><path class="cls-1" d="M45.6,218.58c-2.88,0,21.2-89.53-6.12-131.19-7.71-11.75-17.74-17-19.11-34.91C19.19,37,24.7,14.54,37.22,4.69c15.31-12,30.93,2.66,33.13,4.81C88.22,27,87.84,66.17,82.25,92.39c-3.83,18-7.67,18.35-17,45.57C49.85,182.54,47.42,218.58,45.6,218.58Z"/><path d="M41.69,241.41v-21h7.77c-1.51,8.79-2.94,17.13,2.23,25.19a114.68,114.68,0,0,1,7.86,14.66c2.35,5.21,1.82,5.86-4.14,7.5l4.39,1.16,0,.86H32.64l3.82-1.4c-1.8-1.48-4.33-2.54-4.69-4.1-.39-1.72,1.08-4,2-5.86,2.6-5.74,5.29-11.44,8-17.12-.17,1.6,0,3.37-.6,4.73-2.88,6.14-6.94,11.87-6.44,19.1h19.7c-1.4-5.3-1.85-10.42-4.08-14.6-3.35-6.3-4-12.74-3.81-19.55a35.48,35.48,0,0,0-.2-5.55A17.94,17.94,0,0,0,45.21,222l-1.49.22c0,4.88.15,9.77-.09,14.64C43.47,238.41,42.34,239.88,41.69,241.41Z"/><ellipse class="cls-2" cx="80.22" cy="160" rx="3.47" ry="3.43" transform="translate(-96.7 187.12) rotate(-72.09)"/><path class="cls-3" d="M38.3,256.39,48.78,260c1.76,0,2.48-2.31,3-.93l.17.41a2,2,0,0,1,.16.8v.6a2.36,2.36,0,0,1-.91,1.8h0a3,3,0,0,1-.8.47l-1.2.5a5.36,5.36,0,0,1-1.83.35H40a4.6,4.6,0,0,1-2.9-1L37,263H37a3.06,3.06,0,0,1-1.2-2.37v-.26a1.89,1.89,0,0,1,.17-.8l.16-.41C36.66,257.72,36.54,256.39,38.3,256.39Z"/><path class="cls-4" d="M49.79,255.63,39.3,259.26c-1.76,0-2.47-2.3-3-.93l-.16.41a1.89,1.89,0,0,0-.16.81v.59a2.33,2.33,0,0,0,.9,1.8h0a3.24,3.24,0,0,0,.81.47l1.19.5a5,5,0,0,0,1.84.35h7.4a4.57,4.57,0,0,0,2.89-1l.07,0h.06a3,3,0,0,0,1.19-2.38v-.25a1.89,1.89,0,0,0-.16-.81l-.16-.41C51.42,257,51.55,255.63,49.79,255.63Z"/><path class="cls-5" d="M23.71,46.45a2.87,2.87,0,0,1-.28.43l.24-.3a3.58,3.58,0,0,1-.62.61l.31-.23a3.54,3.54,0,0,1-.73.42l.36-.15-.15.06a1,1,0,0,0-.51.26,1.08,1.08,0,0,0-.39.43,1.09,1.09,0,0,0-.18.55,1.22,1.22,0,0,0,0,.6,1.55,1.55,0,0,0,.69.9,1.46,1.46,0,0,0,1.15.15,4.81,4.81,0,0,0,1.68-1,3,3,0,0,0,.43-.44,5,5,0,0,0,.56-.8,1.54,1.54,0,0,0,.15-1.15,1,1,0,0,0-.27-.51,1.06,1.06,0,0,0-.42-.39,1.54,1.54,0,0,0-1.15-.15,1.52,1.52,0,0,0-.9.69Z"/><path class="cls-5" d="M24.12,49.71l.15-.07-.36.15a1,1,0,0,1,.3-.08l-.4,0h.35l-.4,0a1.48,1.48,0,0,1,.36.1l-.36-.15a1.33,1.33,0,0,1,.35.2l-.3-.23a1.25,1.25,0,0,1,.23.23l-.23-.3a1.28,1.28,0,0,1,.16.28l-.15-.36a1.87,1.87,0,0,1,.07.22,1,1,0,0,0,.26.51,1.08,1.08,0,0,0,.43.39,1.09,1.09,0,0,0,.55.18,1.22,1.22,0,0,0,.6,0,1.55,1.55,0,0,0,.9-.69l.15-.36a1.51,1.51,0,0,0,0-.79,2.65,2.65,0,0,0-.65-1.21,2.75,2.75,0,0,0-.52-.44,1.83,1.83,0,0,0-.3-.18A3.16,3.16,0,0,0,24,46.75a2,2,0,0,0-.35,0c-.12,0-.24,0-.35.06a1.75,1.75,0,0,0-.32.12,3.31,3.31,0,0,0-.33.15,1.52,1.52,0,0,0-.69.9,1.19,1.19,0,0,0,0,.59,1.12,1.12,0,0,0,.18.56,1.5,1.5,0,0,0,2.05.54Z"/><path class="cls-6" d="M25.12,202.69c11.56,5.67,11.5,12.57,18.66,13.05,8,.55,14.37-7.57,22.15-17.46,5.32-6.75,13.57-19.13,11-21.23-2.37-2-15.82,3.2-22.47,11.36a5.26,5.26,0,0,1-3.18,2.29c-4.5.72-11.23-6.71-13.3-14.33-2.47-9,2.35-15.46.66-16.26-2-.93-10.93,6.6-11.74,16.41-.6,7.34,3.72,11.72,1.56,13.57-3.56,3.08-15.85-8.6-23.71-4.69-3.46,1.71-5.66,6.25-4.38,9.28C2.5,199.73,12.59,196.54,25.12,202.69Z"/><path d="M124.67,54.71c-1.53-2.53-4.51-1.41-6.43-.07-3.19,2.23-6.34,4.5-9.51,6.75L89.65,74.94c-.78.55,0,1.85.76,1.29l16.65-11.82,8.11-5.76c1.39-1,2.75-2,4.15-2.94,1.12-.76,3.11-1.81,4.06-.24a.75.75,0,0,0,1.29-.76Z"/><path class="cls-7" d="M24.89,52.91a17.37,17.37,0,0,0-13,10.3c-1.47,3.55-1.69,7.47-1.72,11.31-.15,18.53,3.74,37.81-2.89,55.11Q48.68,119.42,90,108.83c-11.66-3.69-18.51-15.48-23.89-26.46s-11.27-23-22.37-28.12C37.44,51.33,30.2,51.1,23.25,51.7"/><path d="M24.59,51.82a18.61,18.61,0,0,0-11.7,7.31C9.6,63.58,9.06,69.15,9,74.52c-.1,11.83,1.45,23.63.88,35.46a63,63,0,0,1-3.73,19.35c-.31.84.62,1.57,1.39,1.38q32.28-8,64.51-16.14,9.14-2.31,18.27-4.66a1.13,1.13,0,0,0,0-2.17C78.64,104,72.19,92.14,67.11,81.8S56.53,59.88,46,54.11c-6.94-3.8-15-4.18-22.73-3.54-1.43.12-1.44,2.37,0,2.25,7.05-.58,14.51-.41,20.94,2.89,5.3,2.71,9.4,7.16,12.67,12.05,6.62,9.85,10.27,21.39,17.62,30.79,4,5.11,9,9.34,15.25,11.36v-2.17Q57.53,116,25.26,124L7,128.54l1.38,1.39c4-10.56,4.21-22,3.76-33.08-.23-5.63-.62-11.26-.77-16.89s-.58-11.72,1.81-16.86a16.39,16.39,0,0,1,12-9.11c1.43-.25.82-2.42-.59-2.17Z"/><path d="M35.34,123.19A1.69,1.69,0,0,1,34,122.13a.75.75,0,0,0-1.47.2A22.65,22.65,0,0,0,34.71,135c.42.86,1.71.11,1.29-.76a21.21,21.21,0,0,1-2-11.89l-1.47.2a3.18,3.18,0,0,0,2.36,2.11c.94.19,1.35-1.26.4-1.45Z"/><path class="cls-7" d="M26.89,125a23.09,23.09,0,0,0,.3,9.72"/><path d="M26.17,124.75a24.27,24.27,0,0,0,.29,10.11.75.75,0,0,0,1.45-.39,22.7,22.7,0,0,1-.3-9.32c.17-1-1.27-1.35-1.44-.4Z"/><path class="cls-7" d="M25.89,135.52c-4.12,1.06-6.34,6.14-5.13,10.22s5.07,7,9.19,8a10.53,10.53,0,0,0,7.52-.53A8.8,8.8,0,0,0,41.25,149a10.89,10.89,0,0,0-4.38-13.36"/><path d="M25.69,134.8c-3.48,1-5.64,4.28-6,7.77-.37,3.9,1.91,7.41,5,9.61s7.87,3.58,11.73,2.31,6.27-5.22,6.38-9.21A11.75,11.75,0,0,0,37.25,135a.75.75,0,0,0-.76,1.3c5.5,3.27,6.94,12.59.88,16.16-3.18,1.87-7.44,1-10.51-.69-2.81-1.54-5.33-4.25-5.65-7.58s1.52-7,4.88-7.93a.75.75,0,0,0-.4-1.44Z"/><path d="M26.29,47.33l1,3.27a.75.75,0,0,0,1.45-.4l-1-3.27a.75.75,0,0,0-1.45.4Z"/><path d="M20.32,46.59A23.78,23.78,0,0,0,21,53.26c.23.93,1.68.54,1.45-.4a22.45,22.45,0,0,1-.61-6.27.75.75,0,0,0-1.5,0Z"/><path d="M22.52,32.27a2.87,2.87,0,0,1,1.83,3.43,3.59,3.59,0,0,1-3.79,2.39A4.85,4.85,0,0,1,16.71,35a2.55,2.55,0,0,1-.25-1.36,1.32,1.32,0,0,1,.77-.92,8.4,8.4,0,0,1,2.49-.83c1.78-.36,3.84-.3,5.08,1.2a.75.75,0,0,0,1.06,0,.76.76,0,0,0,0-1.06c-1.49-1.81-4-2-6.14-1.66a9.76,9.76,0,0,0-3.25,1.05A2.87,2.87,0,0,0,15,34.7a6.48,6.48,0,0,0,4.86,4.81,5.21,5.21,0,0,0,5.7-2.86,4.39,4.39,0,0,0-2.68-5.83.75.75,0,0,0-.4,1.45Z"/><path class="cls-7" d="M25.29,25.36A28.44,28.44,0,0,1,31,32.55c1.33,2.76,1.69,6.17.15,8.83a9,9,0,0,1-2.67,2.8c-4.87,3.39-12.39,2.36-15.91-2.43s-2-12.55,3.18-15.43A10.28,10.28,0,0,1,26.55,27"/><path d="M24.76,25.89c3.32,3.38,7.31,7.55,6.53,12.73-.68,4.47-5.44,6.84-9.59,6.8A10.45,10.45,0,0,1,12.33,40a10.58,10.58,0,0,1,.94-10.45c2.93-4.16,8.89-4.7,12.91-1.82.78.56,1.53-.74.75-1.3a10.88,10.88,0,0,0-13.63.8A12,12,0,0,0,10.36,39,11.48,11.48,0,0,0,20,46.79c4.51.61,10-1.21,12-5.57C35,35,29.93,29,25.82,24.83c-.67-.69-1.73.37-1.06,1.06Z"/><path d="M68.8,87.88l-28.31,8c-9.23,2.6-18.5,5.62-28.1,6.44-1,.08-1,1.58,0,1.5C22,103,31.2,100,40.4,97.44l28.8-8.11a.75.75,0,0,0-.4-1.45Z"/><path d="M72.45,98a4.46,4.46,0,0,0,2.42,1.43L74.69,98c-8,3.52-16.71,5.22-25.27,7s-16.8,3.65-24.74,7.1c-4.56,2-9.08,4.13-14,4.85-1,.13-.55,1.58.4,1.44a47.4,47.4,0,0,0,12.14-4,96.2,96.2,0,0,1,12.53-4.67c8.51-2.43,17.29-3.71,25.88-5.82a85.48,85.48,0,0,0,13.86-4.56.76.76,0,0,0-.18-1.37,3.14,3.14,0,0,1-1.76-1c-.64-.73-1.7.34-1.06,1.06Z"/><path class="cls-7" d="M145.6,66.86c-11.54,2.36-17.78,14-28.5,17.91l1.09,1.88a24.92,24.92,0,0,0,6.79-8.9c.41-.91-.52-2.26-1.54-1.54a127.16,127.16,0,0,0-22.6,20.18c-1,1.08.63,2.68,1.59,1.59a125.3,125.3,0,0,1,22.14-19.83L123,76.61a23.42,23.42,0,0,1-6.43,8.45,1.13,1.13,0,0,0,1.1,1.88c5.38-2,9.71-5.75,14-9.42s8.8-7.34,14.46-8.5c1.42-.29.82-2.45-.59-2.16Z"/><path class="cls-5" d="M34.88,63.56a18.44,18.44,0,0,1,2.63.58c.43.13.85.28,1.27.44.17.07.8.2.11,0a2.63,2.63,0,0,1,.61.29,19.11,19.11,0,0,1,2.25,1.27l.56.39.32.23c-.34-.26.25.2.32.26l.51.44a19.65,19.65,0,0,1,1.81,1.84c.15.17.29.35.43.52.49.59-.36-.51.08.11.26.36.52.73.76,1.11a20.85,20.85,0,0,1,1.27,2.38c.26.56-.18-.53,0,.11.07.17.14.35.2.53.16.46.3.92.43,1.39a3,3,0,0,0,3.69,2.1,3.06,3.06,0,0,0,2.09-3.69A22.46,22.46,0,0,0,36.47,57.77a3.09,3.09,0,0,0-3.69,2.1c-.32,1.42.44,3.44,2.1,3.69Z"/><path class="cls-7" d="M30.56,138.2a1.63,1.63,0,0,0,1.52.59,1.22,1.22,0,0,0,.66-1.82,24.43,24.43,0,0,0-1.45-2.33c-.29-.45-.58-.91-.83-1.38-.06-.11-.11-.21-.16-.32s-.1-.3,0,0a5.81,5.81,0,0,1-.2-.94c-.22-1.95.15-3.89-.22-5.84a1.11,1.11,0,0,0-1.24-.8,1.13,1.13,0,0,0-1,1.1,24.52,24.52,0,0,0,.58,9c.35,1.17,2.27,1,2.21-.3a18.08,18.08,0,0,1,.38-4.81l-2.21-.3a22.86,22.86,0,0,0,1.9,6.77c.38.9,1.87.61,2.06-.27.6-2.73-.43-5.33-.79-8a1.16,1.16,0,0,0-1.13-1.12,1.14,1.14,0,0,0-1.12,1.12c-.26,3.23,1.83,5.54,3.35,8.15a1.13,1.13,0,0,0,2-1.14c-.61-1.23-1.42-2.35-2.08-3.56a8,8,0,0,1-.73-1.63,3.14,3.14,0,0,1-.13-.67,1.55,1.55,0,0,1,.06-.58l-.67.52h0l-1.43-1.08c0,.24,0,.49-.05.73s0,.33,0,.5a1.49,1.49,0,0,0,0,.21c0-.18,0-.17.12-.36l1.76-.23h0l.33.8c-.15-1.41-.45-2.8-.51-4.22a1.13,1.13,0,0,0-2.21-.3,2.82,2.82,0,0,1-.47.95,1.12,1.12,0,1,0,1.94,1.13,4.39,4.39,0,0,0,.7-1.48l-2.21-.3a23.07,23.07,0,0,0,.29,2.62c.06.39.12.78.17,1.17a1.79,1.79,0,0,0,.38,1.23,1.14,1.14,0,0,0,1.77-.23,5.67,5.67,0,0,0,.31-2.21,1.14,1.14,0,0,0-1.42-1.09c-.93.18-1.08,1.61-1,2.37a7,7,0,0,0,.7,2.41c.72,1.56,1.78,2.92,2.53,4.45l2-1.14c-1.31-2.23-3.27-4.24-3.05-7H29.54c.17,1.3.48,2.57.73,3.86a8.86,8.86,0,0,1,.14,3.55l2.06-.27a19.09,19.09,0,0,1-1.6-5.63,1.14,1.14,0,0,0-1-1.1,1.12,1.12,0,0,0-1.23.81,20.38,20.38,0,0,0-.46,5.4l2.2-.3a23.21,23.21,0,0,1-.49-8.35l-2.21.3c.48,2.55-.46,5.27.84,7.67.41.76.89,1.48,1.36,2.21.21.32.42.65.62,1,.07.11.13.22.19.33s0,.12,0,0-.05-.13,0-.06c.08.28.11,0,.11-.77l.41-.41h0l.56-.16s.66.2.41.08c.29.14.06,0,0,0-1.09-1-2.68.63-1.59,1.59Z"/><polygon class="cls-8" points="64.26 178.93 96.52 189.36 78.02 147.94 64.26 178.93"/><path d="M64.28,178.92l32.29,10.31-.17.19L77.79,148h.46c-2.27,5.15-4.61,10.26-6.93,15.4Zm0,0L71,163.44c2.26-5.19,4.51-10.41,6.83-15.6l.23-.51.23.51,18.4,41.46.13.29-.3-.1Z"/><polygon class="cls-9" points="71.33 175.43 87.02 180.51 78.02 160.36 71.33 175.43"/><path d="M71.35,175.42l4,1.19c1.33.4,2.67.76,4,1.17l7.79,2.41-.41.45-4.61-10L77.72,160.5h.61l-3.4,7.4c-.56,1.23-1.19,2.48-1.78,3.73Zm0,0L78,160.34l0-.08,0,.08,9,20.15,0,.08-.09,0Z"/><path d="M100.52,34.16A153.29,153.29,0,0,1,92,54.63c-.22.43.43.81.64.38a154.32,154.32,0,0,0,8.64-20.66c.15-.45-.57-.65-.73-.19Z"/><line class="cls-10" x1="119.55" y1="88.94" x2="119.55" y2="89.94"/><line class="cls-10" x1="142.55" y1="129.94" x2="142.55" y2="130.94"/><path d="M69.49,177.24a3.15,3.15,0,0,1-.91,2.83,3.15,3.15,0,0,1,.91-2.83Z"/><path d="M74.34,179.29a2.9,2.9,0,0,1-.1,1.53,2.81,2.81,0,0,1-.82,1.3,2.89,2.89,0,0,1,.1-1.53A3,3,0,0,1,74.34,179.29Z"/><path d="M78.86,180.75a3.15,3.15,0,0,1-.91,2.83,2.8,2.8,0,0,1,.1-1.53A2.87,2.87,0,0,1,78.86,180.75Z"/><path d="M83.4,182.38a3.15,3.15,0,0,1-.91,2.83,2.79,2.79,0,0,1,.1-1.53A2.87,2.87,0,0,1,83.4,182.38Z"/><path d="M88.56,184.05a2.9,2.9,0,0,1-.1,1.53,2.84,2.84,0,0,1-.82,1.29,2.86,2.86,0,0,1,.1-1.52A3,3,0,0,1,88.56,184.05Z"/><path d="M93.72,185.71a3.12,3.12,0,0,1-.92,2.83,2.9,2.9,0,0,1,.1-1.53A3,3,0,0,1,93.72,185.71Z"/></g></g></svg>