<svg xmlns="http://www.w3.org/2000/svg" viewBox="0 0 141.92 263.12"><defs><style>.cls-1,.cls-5{fill:#00b2bf;}.cls-1,.cls-2{opacity:0.3;}.cls-1,.cls-2,.cls-5{isolation:isolate;}.cls-2{fill:#29abe2;stroke:#83dee2;stroke-miterlimit:10;stroke-width:3px;}.cls-3{fill:#1ac0d6;}.cls-4{fill:#3e9dcc;}.cls-5{opacity:0.54;}.cls-6{fill:#d389e5;}.cls-7{fill:#d99ce8;}.cls-8{fill:#ed58b1;}.cls-9{fill:#e573bd;}.cls-10{fill:#d7ace2;}.cls-11{fill:#d85dbe;}.cls-12{fill:#020202;}</style></defs><title>Asset 7</title><g id="Layer_2" data-name="Layer 2"><g id="Layer_4" data-name="Layer 4"><path class="cls-1" d="M70.49,211c3,.49.59-67.43,39.45-92.36,11-7,22.69-9,28.64-21.55,5.15-10.85,5.08-27.77-5.42-36.94-12.84-11.23-32.77-3.47-35.59-2.32-23,9.37-32.45,37.32-33.27,57-.57,13.5,3.33,14.4,6.19,35.41C75.17,184.57,68.59,210.65,70.49,211Z"/><path d="M64.59,234.75v-21h7.77c-1.51,8.79-2.94,17.13,2.23,25.19a114.68,114.68,0,0,1,7.86,14.66c2.35,5.21,1.82,5.86-4.14,7.5l4.39,1.16,0,.86H55.54l3.82-1.4c-1.8-1.48-4.33-2.54-4.69-4.1-.39-1.72,1.08-4,2-5.86,2.6-5.74,5.29-11.44,8-17.12-.17,1.6,0,3.37-.6,4.73-2.88,6.14-6.94,11.87-6.44,19.1h19.7c-1.4-5.3-1.85-10.42-4.08-14.6-3.35-6.3-4-12.74-3.81-19.55a35.48,35.48,0,0,0-.2-5.55,17.94,17.94,0,0,0-1.13-3.41l-1.49.22c0,4.88.15,9.77-.09,14.64C66.37,231.75,65.24,233.22,64.59,234.75Z"/><ellipse class="cls-2" cx="48.25" cy="117.54" rx="3.32" ry="4.42"/><path class="cls-3" d="M89.32,195.06c-13.7,1.76-16.26,9.33-23.61,7.1-8.18-2.47-11.47-13.81-15.47-27.62-2.74-9.43-6.27-26.14-2.9-27.45,3.11-1.22,14.58,9.59,18.12,21.07.34,1.13.79,2.82,2.29,3.73,4.23,2.51,13.78-3,18.76-10.57,5.89-8.9,3.54-17.8,5.52-18,2.32-.27,8.41,11.42,5.48,22.46C95.32,174,89.34,177.14,90.78,180c2.39,4.74,19.11-3.3,25.48,4,2.81,3.21,3.27,9,.84,11.84C113.05,200.53,104.18,193.15,89.32,195.06Z"/><path class="cls-4" d="M61.2,249.74l10.49,3.63c1.76,0,2.47-2.3,3-.93l.16.41a1.89,1.89,0,0,1,.16.81v.59a2.33,2.33,0,0,1-.9,1.8h0a3.24,3.24,0,0,1-.81.47l-1.19.5a5,5,0,0,1-1.84.35H62.9a4.57,4.57,0,0,1-2.89-1l-.07-.05h-.06A3,3,0,0,1,58.69,254v-.25a1.89,1.89,0,0,1,.16-.81l.16-.41C59.57,251.07,59.44,249.74,61.2,249.74Z"/><path class="cls-5" d="M72.69,249,62.21,252.6c-1.76,0-2.48-2.3-3-.93l-.17.41a2.05,2.05,0,0,0-.16.81v.6a2.34,2.34,0,0,0,.91,1.79h0a3.33,3.33,0,0,0,.8.48l1.2.49a4.92,4.92,0,0,0,1.83.35H71a4.6,4.6,0,0,0,2.9-1l.06-.05H74a3.07,3.07,0,0,0,1.2-2.37v-.26a1.93,1.93,0,0,0-.17-.81l-.16-.41C74.33,250.3,74.45,249,72.69,249Z"/><path class="cls-6" d="M78.44,82.51,76.38,85a2.32,2.32,0,0,0-.57,1c-.32,1.84,3.42,2,3.58,3.84l2.1-3.75a6.19,6.19,0,0,0,.35,2.81,2.14,2.14,0,0,0,2.28,1.33,2.33,2.33,0,0,0,1-.65,4.44,4.44,0,0,0-5.11-7.13"/><path d="M77.91,82l-1.39,1.68a8.57,8.57,0,0,0-1.25,1.64,2,2,0,0,0,.38,2.3,7.74,7.74,0,0,0,1.82,1.17,5.11,5.11,0,0,1,.79.51,1.05,1.05,0,0,1,.38.54.76.76,0,0,0,1.4.37l2.1-3.74-1.4-.38c0,1.68.09,3.55,1.67,4.53s3.09,0,4-1.34a5.21,5.21,0,0,0-2-7.43,5.44,5.44,0,0,0-4.74,0c-.87.41-.11,1.71.76,1.29A3.89,3.89,0,0,1,84,83.3a3.5,3.5,0,0,1,1.68,3.06,3.9,3.9,0,0,1-.44,1.84c-.27.5-.72,1.15-1.32,1.27s-1.2-.45-1.43-1a5.7,5.7,0,0,1-.25-2.43.76.76,0,0,0-1.4-.38l-2.1,3.75,1.4.38c-.19-1.61-1.67-2.15-2.88-2.88a2,2,0,0,1-.63-.49.33.33,0,0,1-.07-.35,4.7,4.7,0,0,1,1.08-1.45L79,83c.61-.74-.44-1.81-1.06-1.07Z"/><path class="cls-6" d="M80.78,80.24l-.75,2a33,33,0,0,0-6.28-3.09A32.88,32.88,0,0,1,56.2,59.43a32,32,0,0,1,5.94-30.07,30.11,30.11,0,0,1,28.92-9.64,35.85,35.85,0,0,1,17,10,33.75,33.75,0,0,1,5.42,7C119,46.37,117.3,59.37,110,67.77s-19.42,12-30.25,9.53"/><path d="M79.7,79.94l-.76,2,1.65-.67c-2.73-1.94-6-2.8-9-4.46a31.75,31.75,0,0,1-6.9-5.35,31.28,31.28,0,0,1-8.32-15.65C54,43.7,59.24,30.68,69.9,24.32A29.31,29.31,0,0,1,87,20.22c6.41.49,12.43,3.47,17.32,7.55S113.45,37.1,115,43.5a27.22,27.22,0,0,1-1.66,17C107.76,73,93.13,79.08,80.08,76.21c-1.41-.31-2,1.86-.6,2.17,12.41,2.73,26.38-1.91,33.53-12.69a29.65,29.65,0,0,0,4.81-17.95A28.22,28.22,0,0,0,110,30.07,38,38,0,0,0,92.54,18.94,30.27,30.27,0,0,0,73.6,20,31,31,0,0,0,58.86,31.86a33.23,33.23,0,0,0-5.25,18.66c.26,13.21,8.72,25,20.79,30.08a27.35,27.35,0,0,1,5.06,2.57,1.13,1.13,0,0,0,1.65-.67l.76-2c.52-1.35-1.65-1.93-2.17-.6Z"/><path class="cls-7" d="M83.36,25a5.52,5.52,0,0,0,1.89,5.38,18.53,18.53,0,0,0,5.22,3c5.25,2.32,10.82,5.86,11.87,11.5a10.46,10.46,0,0,0,.76,3.21c.53,1,1.81,1.67,2.75,1.1a2.72,2.72,0,0,0,1.05-1.85,19,19,0,0,0-5.8-18.12,20.6,20.6,0,0,0-5.68-3.52,27.79,27.79,0,0,0-11-2"/><path d="M83,24.91c-1.38,5.66,5.44,7.76,9.26,9.68a24.54,24.54,0,0,1,6.5,4.5,12.4,12.4,0,0,1,3.41,7.09c.27,1.62,1.41,4.25,3.58,3.43,2-.74,2-4.34,2-6a19.57,19.57,0,0,0-5.41-13.74c-4.62-4.77-11.38-6.56-17.86-6.57a.38.38,0,0,0,0,.75c5.35,0,10.79,1.21,15.16,4.44a18.61,18.61,0,0,1,7.09,11.67,17.59,17.59,0,0,1-.16,7.08c-.22.89-.64,2-1.81,1.73a2.4,2.4,0,0,1-1.58-1.74c-.36-1.13-.36-2.34-.7-3.48-1.13-3.8-4.26-6.54-7.55-8.52C92.83,34,90.61,33.08,88.46,32c-2.63-1.29-5.54-3.61-4.74-6.92.12-.46-.61-.66-.72-.19Z"/><path class="cls-7" d="M103.21,58.22a19.72,19.72,0,0,0-1.44,5.61,4.43,4.43,0,0,0,.28,2.45,1.73,1.73,0,0,0,2.09.91,2.58,2.58,0,0,0,.94-.89c1.24-1.67,2.52-3.46,2.74-5.53s-1.11-4.46-3.19-4.6"/><path d="M102.85,58.12a19.22,19.22,0,0,0-1.48,6.07,3.85,3.85,0,0,0,.52,2.53,2.17,2.17,0,0,0,1.9.94c.84-.08,1.32-.78,1.77-1.39a21.27,21.27,0,0,0,1.64-2.48,6.51,6.51,0,0,0,.81-4.9,4.06,4.06,0,0,0-3.38-3.1c-.48,0-.47.71,0,.75,1.66.16,2.67,1.84,2.82,3.37.18,1.92-.93,3.72-2,5.23-.46.64-1.1,2-2.06,1.76s-1.32-1.43-1.3-2.35a17.42,17.42,0,0,1,1.47-6.23c.19-.45-.54-.64-.72-.2Z"/><path d="M81.9,80.21l-1.11,1.66a.37.37,0,0,0,.13.51c3.41,2.06,3.71,6.48,2.87,10-1,4-2.73,7.7-3.48,11.78a102.39,102.39,0,0,0-1.22,12.37q-.41,6.63-.89,13.25-2,26.66-5.5,53.15Q70.69,198,68.17,213c-.08.48.64.68.72.2q4.55-27.12,7.46-54.5Q77.8,145,78.84,131.24q.52-6.89.94-13.76a106.91,106.91,0,0,1,1.3-13.37,45.38,45.38,0,0,1,2-7.06,31.18,31.18,0,0,0,1.8-6.34c.44-3.36-.5-7.13-3.56-9l.14.51,1.11-1.65c.27-.4-.38-.78-.65-.38Z"/><path class="cls-8" d="M41,65.55a14.64,14.64,0,0,1-.18,10.7A8.36,8.36,0,0,1,39,72.41a8.42,8.42,0,0,1-1.59,3.87c-.93,1.06-2.67,1.55-3.77.67-1.39-1.09-.87-3.34.12-4.81A17,17,0,0,1,39,67.39"/><path d="M40.22,65.75a14.14,14.14,0,0,1-.17,10.3l1.25-.34a8,8,0,0,1-1.58-3.5.76.76,0,0,0-1.45,0c-.32,1.46-.68,3.31-2.1,4.12-1.18.67-2.61.22-2.63-1.27a6,6,0,0,1,1.92-3.86A18.9,18.9,0,0,1,39.41,68c.82-.51.07-1.81-.75-1.29a20.55,20.55,0,0,0-4,3.13A9,9,0,0,0,32.2,73.8a3.54,3.54,0,0,0,1,3.74,3.45,3.45,0,0,0,4.08-.13c1.56-1.12,2.06-3,2.46-4.8H38.27a9.57,9.57,0,0,0,2,4.17c.39.49,1.07.12,1.25-.34a15.37,15.37,0,0,0,.18-11.09c-.33-.9-1.78-.51-1.45.4Z"/><path class="cls-8" d="M41.25,63.11c-2,3.29-5.92,5.08-9.77,5.2a21.85,21.85,0,0,1-11-3.07C4.75,56.63-3.21,36,2.7,19a23.25,23.25,0,0,1,4.43-8c3-3.4,7.33-5.4,11.58-7S27.55.86,32.2.74A26.17,26.17,0,0,1,51.13,8.4a27.9,27.9,0,0,1,8,22.32"/><path d="M40.6,62.73c-3,4.74-9.11,5.58-14.15,4.18a30.94,30.94,0,0,1-12.61-7.44A39.94,39.94,0,0,1,1.91,36.41,37.06,37.06,0,0,1,2.3,23.17c1.09-5,3.17-10,7.13-13.33,4.21-3.55,10-5.61,15.21-7.09a26.53,26.53,0,0,1,16.46.19C52.51,7,59.47,18.79,58.35,30.72c-.09,1,1.41,1,1.5,0A28.46,28.46,0,0,0,45.36,3.2a26.52,26.52,0,0,0-16.13-3,43.93,43.93,0,0,0-9.41,2.53,49.83,49.83,0,0,0-8.09,3.65c-5.06,3-8.17,7.51-10,13A37.09,37.09,0,0,0,.1,33.54,41.52,41.52,0,0,0,11.56,59.33a33.25,33.25,0,0,0,14.49,9c5.71,1.59,12.47.44,15.85-4.87.52-.82-.78-1.57-1.3-.76Z"/><path class="cls-8" d="M55.25,55c-.39,3.71-4.1,6-7.41,7.74l-9.73,5.08"/><path d="M54.5,55c-.4,3.18-3.5,5.15-6.06,6.57-3.53,1.94-7.14,3.74-10.71,5.6-.86.45-.1,1.75.75,1.3,3.86-2,7.84-3.89,11.59-6.11C52.9,60.69,55.57,58.44,56,55c.12-1-1.38-.94-1.5,0Z"/><path class="cls-9" d="M25.45,8.2c.15,1.4-1.56,2.44-1.52,3.84,0,1.13,1.16,1.88,2.17,2.39,2.29,1.16,4.67,2.14,7,3.13l4.13,1.73c2.8,1.16,5.79,2.49,7.32,5.1,1,1.65,1.27,3.71,2.63,5.06a4.51,4.51,0,0,0,6.89-1.18c1-2.05.23-4.48-.58-6.61-1.21-3.18-2.63-6.49-5.34-8.56-2.39-1.84-5.48-2.47-8.45-3l-8-1.54a8.39,8.39,0,0,0-2.49-.23c-1.66.19-3.27,1.37-4.86.85"/><path d="M56.17,34.19a3.13,3.13,0,0,0-3.82.61c-1.23,1.22-1.51,3.09-1.68,4.73a23.77,23.77,0,0,0-.11,3,9.44,9.44,0,0,0,.3,2.6c.39,1.27,1.8,2.43,3.11,1.58.41-.26,0-.91-.38-.64A1.26,1.26,0,0,1,52,45.73a3.54,3.54,0,0,1-.58-1.84,22.68,22.68,0,0,1,0-4.36,7.91,7.91,0,0,1,1.1-3.78,2.52,2.52,0,0,1,3.27-.92c.41.26.78-.39.38-.64Z"/><path d="M40.58,75.14c2.8,18.23,5.59,36.47,8.7,54.66s6.51,36.3,10.54,54.3q3.39,15.21,7.44,30.28a.37.37,0,0,0,.72-.2c-4.8-17.8-8.83-35.8-12.38-53.89S49,124,46.09,105.78q-2.45-15.42-4.78-30.84c-.08-.48-.8-.28-.73.2Z"/><path class="cls-10" d="M29.89,82.08l4.88,11.23c2,4.63,4,10,1.92,14.55-2.4,5.23-8.95,7-13,11-1.93,1.94-3.27,5-1.82,7.37a11.23,11.23,0,0,0,2.93,2.59,11.59,11.59,0,0,1,4.46,10.77A9.5,9.5,0,0,1,21,147.46c-1.5.11-3.18-.12-4.33.85s-1.2,2.55-.94,3.94c.54,2.85,2.25,5.32,3.32,8s1.35,6.1-.65,8.2c-2.65,2.78-7.36,1.5-10.56-.61-1.54-1-2.66-3.87-.85-4.18a2.18,2.18,0,0,1,1.22.24c3.26,1.34,6.27,4.39,5.88,7.89s-5.86,5.54-7.58,2.47c-1.2,1-.4,3.21,1.08,3.72A4.75,4.75,0,0,0,12,176.8a10.37,10.37,0,0,0,3.1-11.26,2.35,2.35,0,0,0,2.26,1.07,15.53,15.53,0,0,0-2.16-12.05,23.62,23.62,0,0,1-2.79-4.35c-.62-1.61-.45-3.72,1-4.7s3.55-.35,5.38-.45c3.35-.18,6.06-3.3,6.5-6.62s-1-6.68-3.18-9.25c-1.44-1.73-3.27-3.3-3.84-5.48-1-3.79,2.19-7.37,5.42-9.6s7.05-4.32,8.27-8c.81-2.49.25-5.19-.19-7.77a84.6,84.6,0,0,1-1.17-15.73"/><path d="M29.56,82.27l3.52,8.08a80.24,80.24,0,0,1,3.23,8,14,14,0,0,1,.47,8.2,11,11,0,0,1-3.89,5.31c-3.2,2.57-7.28,4.15-10,7.33a7.54,7.54,0,0,0-2,5.4c.24,2.1,1.83,3.19,3.39,4.36,4,3,6.13,8.65,3.67,13.29a9.24,9.24,0,0,1-5.19,4.48c-1.94.63-4.4-.09-6.13,1.14-3.62,2.6.3,8.6,1.58,11.39,1,2.23,1.82,4.91.93,7.32-1,2.62-3.69,3.43-6.23,3-2.16-.39-5.19-1.47-6.19-3.61-.22-.49-.53-1.38,0-1.79s2,.38,2.61.73a10,10,0,0,1,3.17,2.78c1.48,2.08,1.82,5-.35,6.66-1.55,1.22-4.15,1.7-5.34-.24a.38.38,0,0,0-.59-.08,2.67,2.67,0,0,0,.57,4c1.63,1.17,3.83.28,5.24-.81a10.77,10.77,0,0,0,3.36-11.75l-.69.29A2.84,2.84,0,0,0,17.32,167a.38.38,0,0,0,.36-.28,16.12,16.12,0,0,0-.66-9.37,18.56,18.56,0,0,0-2.47-4.27c-1-1.37-2.14-2.85-2.14-4.63,0-4.64,5.47-2.34,8.24-3.42a8.19,8.19,0,0,0,4.81-5.8,11.75,11.75,0,0,0-2.08-8.88c-1.86-2.77-5.45-5.06-4.93-8.82s3.88-6.1,6.71-8c2.34-1.57,4.87-3.21,6.33-5.69,2-3.43.91-7.4.35-11.07a84.48,84.48,0,0,1-.93-14.21.38.38,0,0,0-.75,0,85.06,85.06,0,0,0,.61,11.94c.47,3.74,2,8.12.64,11.8-1.16,3.07-4.18,4.94-6.78,6.68s-5.11,3.64-6.37,6.51c-1.17,2.65-.49,5.2,1.27,7.39a49.44,49.44,0,0,1,3.43,4.2,12,12,0,0,1,1.93,5.49c.26,3.35-1.68,7-5.08,7.94-2.52.67-6.16-1.08-7.7,1.87s1,5.87,2.61,8.2A15.31,15.31,0,0,1,17,166.51l.36-.27a2.06,2.06,0,0,1-1.93-.89c-.23-.32-.84-.15-.69.29a10.13,10.13,0,0,1-1.07,8.73,7.64,7.64,0,0,1-3.84,3.23,2.72,2.72,0,0,1-2.88-.52,1.83,1.83,0,0,1-.11-2.54l-.59-.07c1.87,3.05,6.48,1.52,7.86-1.24,1-1.92.3-4.27-.88-5.93s-3.53-3.73-5.66-4C5.81,163.1,5.44,164.72,6,166c.78,2,2.8,3,4.68,3.67a8.42,8.42,0,0,0,6.48.16,5.83,5.83,0,0,0,3.14-5.27c.09-2.62-1-5-2.16-7.29s-4.19-8.19,0-9.26c1.21-.31,2.49-.1,3.72-.3a8.91,8.91,0,0,0,3.29-1.29,10.35,10.35,0,0,0,4.18-5.36c1.61-4.83-.84-10-4.77-12.9-1.39-1-2.8-2-2.87-3.94a6.93,6.93,0,0,1,1.81-4.52,24.81,24.81,0,0,1,6.09-4.67,23.74,23.74,0,0,0,6.11-4.84,10.82,10.82,0,0,0,2.25-7.92A31.2,31.2,0,0,0,35,92.9l-4.78-11c-.19-.45-.84-.06-.65.38Z"/><path d="M130.78,153.19c1.23.12-.17,2.32-.48,2.7a10.66,10.66,0,0,1-2.66,2.3,10.83,10.83,0,0,1-6.78,1.5.36.36,0,0,0-.36.28c-.39,1.64-.7,4,.7,5.31a3.07,3.07,0,0,0,2.7.57,16.49,16.49,0,0,0,3.57-1.07,18.58,18.58,0,0,0,9.89-9.79.38.38,0,0,0-.33-.56,5.8,5.8,0,0,1-4.92-2.44c-.28-.39-.93,0-.65.38a6.59,6.59,0,0,0,5.57,2.81l-.32-.57a17.88,17.88,0,0,1-8.23,8.88,17,17,0,0,1-2.9,1.18c-1,.3-2.36.79-3.37.37-1.75-.73-1.33-3.43-1-4.87l-.36.27a11.52,11.52,0,0,0,8.61-2.65,6.7,6.7,0,0,0,2.42-3.22c.21-.93,0-2-1.11-2.13-.48,0-.48.71,0,.75Z"/><path d="M100.52,174.74a9.32,9.32,0,0,1-7.46,6.2.41.41,0,0,0-.28.37,8.74,8.74,0,0,0,1.43,5.19c1,1.35,2.79.39,4-.18a13.58,13.58,0,0,0,6.35-6.54,12.87,12.87,0,0,0,1.19-5.1.38.38,0,0,0-.64-.26A2.86,2.86,0,0,1,102,175c-.44-.19-.82.45-.38.65a3.65,3.65,0,0,0,4-.66l-.64-.27a12.74,12.74,0,0,1-4.28,9.06,12,12,0,0,1-4.42,2.54c-.61.19-1.1.29-1.5-.29a6.39,6.39,0,0,1-.7-1.41,8.68,8.68,0,0,1-.54-3.27l-.27.36a10.08,10.08,0,0,0,8-6.73c.15-.46-.57-.66-.73-.2Z"/><path class="cls-11" d="M93,153c.22-.1.15.41-.08.34s-.27-.38-.23-.62c.34-2.36,2.93-3.68,5.28-4.11a6.28,6.28,0,0,1,4.62.52c1.33.87,1.94,2.94.84,4.09a6.8,6.8,0,0,0-7.83,5.32c-.73-.78-.68-2-1-3s-1.71-1.88-2.42-1.07"/><path d="M93.11,153.36h.07l-.29,0c.17.13.18-.56.19-.64a3.39,3.39,0,0,1,.11-.43,3.7,3.7,0,0,1,.41-.82,4.52,4.52,0,0,1,1.3-1.24,9.15,9.15,0,0,1,3.54-1.28c1.39-.22,3.11-.23,4.24.76a2.44,2.44,0,0,1,.5,3.3l.36-.1a7.19,7.19,0,0,0-8.29,5.58l.63-.16c-.89-1-.52-2.58-1.39-3.63a1.76,1.76,0,0,0-2.59-.45.38.38,0,0,0,.53.53c.37-.37.87-.15,1.22.14a2.16,2.16,0,0,1,.71,1.27,5.78,5.78,0,0,0,1,2.67.38.38,0,0,0,.63-.17,6.48,6.48,0,0,1,6-5.17,4.83,4.83,0,0,1,.76,0c.25,0,.61.17.85.09s.59-.64.7-1a2.93,2.93,0,0,0,.1-1.44c-.43-2.5-3-3.31-5.26-3.11s-4.53.93-5.9,2.66c-.47.6-1.36,2.14-.61,2.83s1.42-1.1.34-.92c-.48.07-.28.8.2.72Z"/><path d="M70.45,139c-.1-3.73,2.18-6.27,4.85-8.56a11.9,11.9,0,0,1,4.53-2.92c1.43-.38,3-.24,4.39-.59,5-1.2,8.66-5.5,10.16-10.23l-.74-.1c0,3.52-.25,7.26-3.46,9.4-2.85,1.89-6.43,2.68-9.58,3.93-5.17,2.06-10.69,5.71-11,11.83,0,.49.72.49.75,0,.44-7.58,8.69-10.47,14.68-12.64,2.6-.95,5.63-1.89,7.43-4.13s2-5.52,2-8.39a.37.37,0,0,0-.73-.1,15.37,15.37,0,0,1-4.81,7.24,12.21,12.21,0,0,1-4,2.23,25,25,0,0,1-4.39.67c-2.93.41-5.4,2.82-7.42,4.81A10.09,10.09,0,0,0,69.7,139a.38.38,0,0,0,.75,0Z"/><path class="cls-11" d="M131.21,101.75a11.8,11.8,0,0,1-2.44,6.11,2.53,2.53,0,0,0,1.75,1.61,41.51,41.51,0,0,0,3.92-6.56l-4.14-.55"/><path d="M130.84,101.75a11.39,11.39,0,0,1-1.65,4.85c-.22.35-.52.67-.72,1s0,.66.21.92a2.94,2.94,0,0,0,1.75,1.28.39.39,0,0,0,.42-.17,43.08,43.08,0,0,0,3.92-6.56.39.39,0,0,0-.33-.57L130.3,102c-.48-.06-.47.69,0,.75l4.14.55-.32-.56a43.08,43.08,0,0,1-3.92,6.56l.42-.17a2.17,2.17,0,0,1-1.49-1.35l-.1.36a12.4,12.4,0,0,0,2.56-6.37c0-.48-.71-.48-.75,0Z"/><path class="cls-8" d="M44.08,53.32l-3.86,3.53A1.51,1.51,0,0,0,42,59.21a6,6,0,0,1,1-.5L41.32,56.5l-1.79,3.65a1.52,1.52,0,0,0,1.7,2.2,16.22,16.22,0,0,0,7.26-4.53,1.5,1.5,0,0,0-1.81-2.36A14.82,14.82,0,0,0,42,60.37c-.51.9.13,2.4,1.3,2.26a6.69,6.69,0,0,0,5.83-5,1.51,1.51,0,0,0-2.51-1.46,35,35,0,0,0-5.75,6.17,1.51,1.51,0,0,0,.23,1.82,1.53,1.53,0,0,0,1.82.24,14.39,14.39,0,0,0,4.95-5,1.53,1.53,0,0,0-.24-1.82,1.56,1.56,0,0,0-1.81-.23,12.59,12.59,0,0,0-6,5.83,1.53,1.53,0,0,0,.39,1.94,1.54,1.54,0,0,0,2-.12,99.41,99.41,0,0,0,10.46-9.42l-2.36-1.82a9.06,9.06,0,0,0-1.59,3.55,1.51,1.51,0,0,0,2.75,1.16,13.76,13.76,0,0,0,1.66-3.32,1.51,1.51,0,0,0-2.5-1.46A6.46,6.46,0,0,0,49,57.35a1.51,1.51,0,0,0,2.26,1.3,5.31,5.31,0,0,0,2-2.27,1.51,1.51,0,0,0-1.7-2.21,7.63,7.63,0,0,0-5.54,5,1.5,1.5,0,0,0,.54,1.58,1.56,1.56,0,0,0,1.66.12,13.32,13.32,0,0,0,4.28-3,1.5,1.5,0,0,0-1.82-2.35L47,57.64a1.5,1.5,0,0,0,1.51,2.59l3.68-2.12L50.4,55.75a11.09,11.09,0,0,1-3.67,2.56l2.2,1.7a4.1,4.1,0,0,1,.52-1,5.2,5.2,0,0,1,.81-.91,2,2,0,0,1,.34-.26,5.63,5.63,0,0,1,.62-.37,4.15,4.15,0,0,1,1.16-.38l-1.69-2.21a2.47,2.47,0,0,1-.91,1.2L52,57.35a3.26,3.26,0,0,1,.67-1.56L50.2,54.33a10.6,10.6,0,0,1-1.37,2.6l2.75,1.16a6.68,6.68,0,0,1,1.29-2.84,1.48,1.48,0,0,0-.39-1.93,1.51,1.51,0,0,0-2,.11,98.41,98.41,0,0,1-10.46,9.43l2.35,1.82a9.85,9.85,0,0,1,5-4.76l-2-2.05a11.32,11.32,0,0,1-3.88,3.93l2.06,2.05a32,32,0,0,1,5.28-5.57l-2.51-1.46a4.07,4.07,0,0,1-.2.68c-.09.23.08-.16,0,.07l-.15.27-.21.33s-.15.19,0,.07a4.7,4.7,0,0,1-.49.51,1.07,1.07,0,0,1-.31.25,5.29,5.29,0,0,1-.6.36c-.06,0-.22.09-.08,0l-.29.1-.38.1s-.37.06-.14,0l1.3,2.26a11.46,11.46,0,0,1,3.55-3.84L46.37,55.7a13.17,13.17,0,0,1-5.94,3.76l1.69,2.2L43.91,58a1.52,1.52,0,0,0-.12-1.67,1.46,1.46,0,0,0-1.57-.53,9.76,9.76,0,0,0-1.7.8L42.34,59l3.86-3.54a1.5,1.5,0,1,0-2.12-2.12Z"/><path class="cls-8" d="M48.71,56.52c.79-2,1.59-4,2.43-5.91a1.54,1.54,0,0,0-.39-1.94,1.48,1.48,0,0,0-2,.12,21.19,21.19,0,0,0-4,6.35,1.49,1.49,0,0,0,.69,1.69,1.56,1.56,0,0,0,1.81-.23A11,11,0,0,0,51,49.05,1.48,1.48,0,0,0,50,47.68a1.47,1.47,0,0,0-1.64.31,11.1,11.1,0,0,0-2.47,6.83A1.51,1.51,0,0,0,47,56.26a1.56,1.56,0,0,0,1.69-.69,17,17,0,0,0,3-7.39h-2.9c.06.16.1.32.15.49s0,.1,0,0a2.11,2.11,0,0,1,0,.25,5.23,5.23,0,0,1,0,.56s0,.31,0,.12,0,.08,0,.12a17.41,17.41,0,0,1-.56,2.12,8.07,8.07,0,0,0-.34,4.73,1.51,1.51,0,0,0,2.51.66,9.89,9.89,0,0,0,2.47-8.15A1.45,1.45,0,0,0,51.81,48a1.56,1.56,0,0,0-1.5.71,6.08,6.08,0,0,0-.86,5.4,1.52,1.52,0,0,0,2.74.36,10.75,10.75,0,0,0,1.59-7.87A1.52,1.52,0,0,0,51,46.23,13.86,13.86,0,0,0,49.82,53a1.54,1.54,0,0,0,1.5,1.5,1.52,1.52,0,0,0,1.5-1.5,11.92,11.92,0,0,1,0-1.46c0-.25,0-.49,0-.73s0-.22,0-.33c0-.29-.07.35,0-.16s.18-.9.31-1.35c.07-.23.14-.46.22-.69l.15-.38c.1-.28-.15.31.07-.17l-2.75-.36s.07.48,0,.21L51,48c0,.28,0,.56,0,.84s0,.51-.06.76c0-.27,0,.2,0,.21s-.05.25-.08.37-.12.5-.19.74l-.12.37s-.17.43-.08.21a8.8,8.8,0,0,1-.81,1.47l2.74.36c-.06-.19-.11-.37-.15-.56-.09-.42,0,.25,0-.18,0-.17,0-.33,0-.5s0-.15,0-.22q0,.24,0,0c0-.14.06-.28.1-.42s.21-.57.1-.32a4.69,4.69,0,0,1,.52-.86l-2.74-.36c0-.31,0,.16,0,.17s0,.29,0,.44,0,.53,0,.79a1.5,1.5,0,0,1,0,.22c0-.13,0-.15,0,0s0,.24-.07.36a8.59,8.59,0,0,1-.21.84,6.8,6.8,0,0,1-1.41,2.45l2.51.66a4.43,4.43,0,0,1-.13-.49c0,.12,0,.19,0,0s0-.17,0-.25,0-.38,0-.57c0,0,0-.3,0-.12s0-.09,0-.12a19.5,19.5,0,0,1,.57-2.12,7.68,7.68,0,0,0,.27-4.71,1.55,1.55,0,0,0-1.45-1.1,1.52,1.52,0,0,0-1.45,1.1,16.28,16.28,0,0,1-1,3.62.93.93,0,0,1-.09.22c-.07.14-.13.28-.2.43s-.28.56-.43.83a16.36,16.36,0,0,1-1,1.58l2.8.76c0-.26,0-.51,0-.76l0-.31c0,.22,0,0,0-.12a8.46,8.46,0,0,1,.36-1.4l.1-.28c.17-.46-.06.11.05-.14l.3-.61c.12-.23.25-.44.39-.66l.17-.25.13-.18L48,49.05c0,.14,0,.29,0,.43,0,.36,0-.14,0,.18s-.12.57-.19.85-.17.56-.27.84c0,0-.19.43-.07.18-.06.13-.12.26-.19.39a7.07,7.07,0,0,1-.43.76l-.24.37s-.27.37-.11.17a9.6,9.6,0,0,1-1.21,1.26l2.51,1.46c.19-.47-.06.11.06-.15l.16-.36c.11-.24.23-.48.35-.71.25-.49.53-1,.82-1.43s.58-.88.9-1.3c.17-.23-.22.27.1-.13l.25-.3.57-.65-2.35-1.82c-.95,2.19-1.87,4.4-2.74,6.63a1.51,1.51,0,0,0,1,1.84,1.55,1.55,0,0,0,1.85-1Z"/><path class="cls-8" d="M50.7,46.15a33.28,33.28,0,0,1-.16,10.16,1.54,1.54,0,0,0,1.05,1.85,1.5,1.5,0,0,0,1.84-1,38,38,0,0,0,.17-11.75,1.5,1.5,0,0,0-1.85-1,1.55,1.55,0,0,0-1,1.84Z"/><path class="cls-8" d="M52.12,31.09l-.59,10.42a1.5,1.5,0,0,0,2.94.4,19.29,19.29,0,0,1,3.67-7.74l-2.35-1.81A52.14,52.14,0,0,0,50.15,46.6c-.44,1.88,2.45,2.68,2.89.8L55,39.3a1.5,1.5,0,0,0-2.89-.8,51.5,51.5,0,0,0-2.62,12.08,1.5,1.5,0,0,0,3,0A48,48,0,0,1,55,39.3l-2.89-.8-1.91,8.1,2.89.8a49.53,49.53,0,0,1,5.34-13.53c.82-1.42-1.26-3.19-2.36-1.82a22.54,22.54,0,0,0-4.44,9.06l3,.4.59-10.42c.11-1.93-2.89-1.92-3,0Z"/><path class="cls-8" d="M53.62,38.92c-.66,1.16-.42,2.68-.45,4a17.79,17.79,0,0,1-.62,4.3c-.76,2.73-.09,5.52.37,8.26.16,1,1.6.55,1.45-.4-.22-1.3-.42-2.6-.59-3.9a9,9,0,0,1,.29-3.83,16.8,16.8,0,0,0,.57-3.67c0-.66,0-1.31,0-2a4.24,4.24,0,0,1,.22-2,.75.75,0,0,0-1.29-.75Z"/><path class="cls-8" d="M58.79,33a3.28,3.28,0,0,0,.9-1.33H59A1.25,1.25,0,0,1,59,32v-.1a1.31,1.31,0,0,1,0,.28v-.1a1,1,0,0,1-.08.29l0-.09a1.59,1.59,0,0,1-.13.22l.06-.07,0,0a.43.43,0,0,0-.11.26.37.37,0,0,0,.11.27.38.38,0,0,0,.53,0,1.4,1.4,0,0,0,.34-.69,1.46,1.46,0,0,0-.07-.77.41.41,0,0,0-.13-.19.32.32,0,0,0-.23-.08.45.45,0,0,0-.19.05.37.37,0,0,0-.17.22s0,.08,0,.11l0-.09a3.25,3.25,0,0,1-.38.65l0-.08a2.46,2.46,0,0,1-.38.41.37.37,0,0,0,.53.53Z"/><path class="cls-8" d="M58.66,32.44l-.85.81.59.45A3.93,3.93,0,0,0,59.08,32a.38.38,0,0,0-.13-.4.4.4,0,0,0-.42,0,1.59,1.59,0,0,0-.65,1,.37.37,0,0,0,.26.47.38.38,0,0,0,.46-.27,1.6,1.6,0,0,1,0-.21.08.08,0,0,0,0,0s0,.06,0,0a.47.47,0,0,1,0-.1l.05-.08c0-.07,0,0,0,0l0,0,.07-.08.05,0h0l-.55-.42a4,4,0,0,1-.22.82s0,0,0,0l0,0a.47.47,0,0,1,0,.1A1.3,1.3,0,0,1,58,33l-.24.37a.39.39,0,0,0,.09.49.39.39,0,0,0,.5,0l.85-.81a.37.37,0,0,0,0-.53.39.39,0,0,0-.53,0Z"/><path class="cls-8" d="M54.76,36l-1.87,6.8a.38.38,0,0,0,.63.36,4,4,0,0,0,1-2.18,3.26,3.26,0,0,1,1-2.11L55,38.46l-1.53,5c-.14.47.56.65.72.2l1.54-4.19c.17-.45-.56-.65-.72-.2l-1.54,4.19.72.2,1.54-5.05a.38.38,0,0,0-.56-.42A3.33,3.33,0,0,0,54,40.35a4.31,4.31,0,0,1-1,2.3l.62.37,1.87-6.8a.37.37,0,0,0-.72-.2Z"/><path class="cls-12" d="M59.14,29.71l0,3.46a.38.38,0,0,0,.75,0l0-3.46a.38.38,0,0,0-.75,0Z"/><path class="cls-12" d="M58.78,30.76,58,34c-.11.47.62.67.73.2L59.51,31c.11-.47-.62-.67-.73-.2Z"/><path class="cls-9" d="M50.27,36.32c.42,1.42-.27,2.9-.89,4.24s-1.18,2.92-.53,4.25a.84.84,0,0,0,.39.44c.48.22.93-.35,1.16-.83,1.13-2.33,2.19-4.69,3.2-7.07a2.47,2.47,0,0,0,.25-1.92,1.53,1.53,0,0,0-1.88-.7,2.6,2.6,0,0,0-1.48,1.53"/></g></g></svg>